<svg xmlns="http://www.w3.org/2000/svg" width="30" height="49" viewBox="0 0 30 49">
  <metadata><?xpacket begin="﻿" id="W5M0MpCehiHzreSzNTczkc9d"?>
<x:xmpmeta xmlns:x="adobe:ns:meta/" x:xmptk="Adobe XMP Core 5.6-c142 79.160924, 2017/07/13-01:06:39        ">
   <rdf:RDF xmlns:rdf="http://www.w3.org/1999/02/22-rdf-syntax-ns#">
      <rdf:Description rdf:about=""/>
   </rdf:RDF>
</x:xmpmeta>
                                                                                                    
                                                                                                    
                                                                                                    
                                                                                                    
                                                                                                    
                                                                                                    
                                                                                                    
                                                                                                    
                                                                                                    
                                                                                                    
                                                                                                    
                                                                                                    
                                                                                                    
                                                                                                    
                                                                                                    
                                                                                                    
                                                                                                    
                                                                                                    
                                                                                                    
                                                                                                    
                           
<?xpacket end="w"?></metadata>
<defs>
    <style>
      .cls-1 {
        fill: #141414;
        fill-rule: evenodd;
      }
    </style>
  </defs>
  <path id="Iphone_Icon" data-name="Iphone Icon" class="cls-1" d="M316.875,1307h-19.75a5.121,5.121,0,0,0-5.125,5.12v38.75a5.123,5.123,0,0,0,5.125,5.13h19.75a5.123,5.123,0,0,0,5.125-5.13v-38.75A5.121,5.121,0,0,0,316.875,1307ZM320,1350.87a3.128,3.128,0,0,1-3.125,3.13h-19.75a3.128,3.128,0,0,1-3.125-3.13V1346h26v4.87Zm0-6.87H294v-28h26v28Zm0-30H294v-1.88a3.126,3.126,0,0,1,3.125-3.12h19.75a3.126,3.126,0,0,1,3.125,3.12V1314Zm-13,38a2,2,0,1,0-2-2A2,2,0,0,0,307,1352Z" transform="translate(-292 -1307)"/>
</svg>
