<svg xmlns="http://www.w3.org/2000/svg" width="18.094" height="14.72" viewBox="0 0 18.094 14.72">
  <metadata><?xpacket begin="﻿" id="W5M0MpCehiHzreSzNTczkc9d"?>
<x:xmpmeta xmlns:x="adobe:ns:meta/" x:xmptk="Adobe XMP Core 5.6-c142 79.160924, 2017/07/13-01:06:39        ">
   <rdf:RDF xmlns:rdf="http://www.w3.org/1999/02/22-rdf-syntax-ns#">
      <rdf:Description rdf:about=""/>
   </rdf:RDF>
</x:xmpmeta>
                                                                                                    
                                                                                                    
                                                                                                    
                                                                                                    
                                                                                                    
                                                                                                    
                                                                                                    
                                                                                                    
                                                                                                    
                                                                                                    
                                                                                                    
                                                                                                    
                                                                                                    
                                                                                                    
                                                                                                    
                                                                                                    
                                                                                                    
                                                                                                    
                                                                                                    
                                                                                                    
                           
<?xpacket end="w"?></metadata>
<defs>
    <style>
      .cls-1 {
        fill: #fff;
        fill-rule: evenodd;
      }
    </style>
  </defs>
  <path id="Twitter_Icon" data-name="Twitter Icon" class="cls-1" d="M561.093,4568.56a7.289,7.289,0,0,1-2.132.59,3.729,3.729,0,0,0,1.632-2.06,7.187,7.187,0,0,1-2.357.9,3.718,3.718,0,0,0-6.326,3.39,10.509,10.509,0,0,1-7.651-3.88,3.723,3.723,0,0,0,1.149,4.96,3.685,3.685,0,0,1-1.681-.47v0.05a3.712,3.712,0,0,0,2.977,3.64,3.509,3.509,0,0,1-.978.13,3.223,3.223,0,0,1-.7-0.07,3.71,3.71,0,0,0,3.467,2.58,7.419,7.419,0,0,1-4.61,1.59,6.474,6.474,0,0,1-.885-0.05,10.554,10.554,0,0,0,16.251-8.89c0-.17,0-0.33-0.01-0.49A7.4,7.4,0,0,0,561.093,4568.56Z" transform="translate(-543 -4566.81)"/>
</svg>
